HIERARCHY
ROOT ui
{
	 OFFSET 0 0 0
	 CHANNELS 3 XPosition YPosition Z Position
	 EndSite
	 {
	 OFFSET 0 -1 0
	 }
}
ROOT li
{
	 OFFSET 0 0 0
	 CHANNELS 3 XPosition YPosition Z Position
	 EndSite
	 {
	 OFFSET 0 -1 0
	 }
}
ROOT ul
{
	 OFFSET 0 0 0
	 CHANNELS 3 XPosition YPosition Z Position
	 EndSite
	 {
	 OFFSET 0 -1 0
	 }
}
ROOT ll
{
	 OFFSET 0 0 0
	 CHANNELS 3 XPosition YPosition Z Position
	 EndSite
	 {
	 OFFSET 0 -1 0
	 }
}
ROOT tt
{
	 OFFSET 0 0 0
	 CHANNELS 3 XPosition YPosition Z Position
	 EndSite
	 {
	 OFFSET 0 -1 0
	 }
}
ROOT tb
{
	 OFFSET 0 0 0
	 CHANNELS 3 XPosition YPosition Z Position
	 EndSite
	 {
	 OFFSET 0 -1 0
	 }
}
ROOT td
{
	 OFFSET 0 0 0
	 CHANNELS 3 XPosition YPosition Z Position
	 EndSite
	 {
	 OFFSET 0 -1 0
	 }
}
ROOT v
{
	 OFFSET 0 0 0
	 CHANNELS 3 XPosition YPosition Z Position
	 EndSite
	 {
	 OFFSET 0 -1 0
	 }
}
ROOT bn
{
	 OFFSET 0 0 0
	 CHANNELS 3 XPosition YPosition Z Position
	 EndSite
	 {
	 OFFSET 0 -1 0
	 }
}
MOTION
Frames: 24
Frame Time: 0.002
5.32729983329773E-4	5.613399744033813E-4	0		0.4582183227539062	-2.316169189453125	0		-0.9259716186523438	-0.011875022888183593	0		-0.674680908203125	-2.254005615234375	0		1.209978271484375	-0.5784288330078124	0		2.745522216796875	-0.030380029678344727	0		4.3417890625	0.2792620544433594	0		5.4762705078125	-0.026996803283691407	0		-0.08342372894287109	5.94989111328125	0		
-0.002495560884475708	-0.0022422699928283693	0		0.4287550354003906	-2.292383544921875	0		-1.0019820556640624	-0.013049959182739258	0		-0.686525634765625	-2.247606201171875	0		1.2038570556640624	-0.5851747436523438	0		2.754313232421875	-0.04147068023681641	0		4.35653662109375	0.26602557373046876	0		5.46633251953125	-0.025690914154052735	0		-0.08431483459472656	5.95104248046875	0		
-0.0024705209732055664	-0.00211031699180603	0		0.4810800476074219	-2.323425537109375	0		-0.9299970703125	-0.015508316040039062	0		-0.6885646362304687	-2.249423095703125	0		1.203876953125	-0.5850535888671875	0		2.7412744140625	-0.0440738639831543	0		4.33872412109375	0.27351663208007815	0		5.46635693359375	-0.0256079158782959	0		-0.0984774169921875	5.9404892578125	0		
-0.005549981117248535	-0.00591051197052002	0		0.428190673828125	-2.317121337890625	0		-1.001948486328125	-0.012767332077026367	0		-0.6787799682617187	-2.25850439453125	0		1.2038800048828124	-0.5849330444335937	0		2.776962646484375	-0.05876467895507813	0		4.33087060546875	0.2797834777832031	0		5.4720751953125	-0.03865836715698242	0		-0.06992969512939454	5.96199462890625	0		
-0.0024725139141082765	-0.001847823977470398	0		0.45714947509765624	-2.31764013671875	0		-1.0019592895507812	-0.012626896858215332	0		-0.68656689453125	-2.247192138671875	0		1.1619183349609374	-0.5818814697265625	0		2.740338623046875	-0.04084387588500977	0		4.34185986328125	0.27962551879882813	0		5.46051171875	-0.01832136917114258	0		-0.06988021850585938	5.96212548828125	0		
5.612109899520875E-4	0.0012121009826660156	0		0.43221038818359375	-2.311962646484375	0		-0.9979036865234375	-0.008579011917114257	0		-0.6866226196289062	-2.2470576171875	0		1.1992490234375	-0.565593505859375	0		2.74103857421875	-0.05276443481445312	0		4.32188037109375	0.2821518859863281	0		5.4604794921875	-0.018251102447509767	0		-0.08409133911132813	5.95156787109375	0		
5.057830214500427E-4	0.0013358449935913085	0		0.4555250244140625	-2.29435986328125	0		-1.0020472412109376	-0.012354528427124024	0		-0.6995654296875	-2.240638671875	0		1.151088134765625	-0.5694131469726562	0		2.765998779296875	-0.05222677993774414	0		4.355796875	0.2804727478027344	0		5.47042138671875	-0.018408565521240233	0		-0.08408285522460937	5.9516923828125	0		
-0.002640304088592529	-0.0014771369695663452	0		0.4264270935058594	-2.293599609375	0		-0.9301675415039062	-0.014827076911926269	0		-0.6996699829101563	-2.240511474609375	0		1.1929468994140624	-0.572240966796875	0		2.735881103515625	-0.053469039916992187	0		4.3295927734375	0.27512503051757814	0		5.46034326171875	-0.01812623977661133	0		-0.08409781646728516	5.95181298828125	0		
-0.002746217966079712	-0.0013626029491424561	0		0.47859213256835936	-2.325662841796875	0		-1.00629931640625	-0.015008687019348144	0		-0.6812285766601562	-2.259807861328125	0		1.1508896484375	-0.5692044067382812	0		2.7486376953125	-0.05967280960083008	0		4.3343330078125	0.2680821838378906	0		5.46179150390625	-0.038111492156982424	0		-0.06894135284423829	5.960591796875	0		
-0.00287880802154541	-0.0012536040544509888	0		0.438488525390625	-2.32266796875	0		-1.0023661499023437	-0.011978558540344238	0		-0.6772755737304688	-2.25478173828125	0		1.20649169921875	-0.581353515625	0		2.758457275390625	-0.061816444396972654	0		4.3304716796875	0.28022967529296877	0		5.47998828125	-0.023467487335205078	0		-0.06705348968505859	5.9586572265625	0		
2.7852000668644905E-5	0.0017819050550460815	0		0.4844037475585937	-2.3185966796875	0		-0.9943716430664062	-0.005044633865356445	0		-0.6733714599609375	-2.250761474609375	0		1.1705355224609375	-0.5714630126953125	0		2.754454345703125	-0.05465597534179688	0		4.35119873046875	0.2748184814453125	0		5.459900390625	-0.019978933334350586	0		-0.06910282135009765	5.96080517578125	0		
-1.5825800597667693E-4	0.0018789559602737428	0		0.45622164916992186	-2.31688037109375	0		-0.9366392211914063	-0.00923004722595215	0		-0.6437903442382813	-2.26032421875	0		1.1923377685546874	-0.5718695678710938	0		2.718919189453125	-0.06980403900146484	0		4.32420068359375	0.28346856689453126	0		5.4597138671875	-0.019941312789916992	0		-0.08442113494873046	5.952240234375	0		
-0.003436691999435425	-9.627460241317749E-4	0		0.47779998779296873	-2.325283935546875	0		-1.0069903564453124	-0.014564929008483886	0		-0.6897703247070313	-2.248202392578125	0		1.15017431640625	-0.5688550415039062	0		2.744454345703125	-0.08132086181640626	0		4.3198583984375	0.2776025695800781	0		5.455279296875	-0.029818748474121092	0		-0.08456817626953125	5.95233154296875	0		
-0.0036741750240325928	-8.791829943656922E-4	0		0.4516101684570312	-2.3216259765625	0		-0.935268310546875	-0.017077939987182617	0		-0.6463341064453125	-2.262090576171875	0		1.18880908203125	-0.5746539916992187	0		2.7442158203125	-0.08126783752441406	0		4.31176025390625	0.28381527709960935	0		5.45921923828125	-0.021887168884277344	0		-0.08473950958251954	5.952416015625	0		
-0.0039353959560394286	-8.032529950141907E-4	0		0.43623703002929687	-2.325218994140625	0		-1.0393919677734376	-0.009668904304504395	0		-0.6805230102539063	-2.257248779296875	0		1.1606824951171875	-0.5679674072265625	0		2.726047607421875	-0.07682181549072266	0		4.3234990234375	0.28357421875	0		5.45895751953125	-0.02187308692932129	0		-0.06973597717285156	5.9611552734375	0		
-0.0011517130136489868	0.0021967780590057373	0		0.45616845703125	-2.31460595703125	0		-0.9276580200195312	-0.010093445777893067	0		-0.6787651977539062	-2.254218505859375	0		1.2020474853515626	-0.5838482666015625	0		2.7306064453125	-0.08389554595947266	0		4.3190869140625	0.2776829833984375	0		5.4586748046875	-0.021868370056152345	0		-0.08416976928710937	5.95153955078125	0		
-0.004518958091735839	-6.760669946670533E-4	0		0.42431793212890623	-2.292841552734375	0		-1.0040071411132812	-0.011322505950927734	0		-0.6930220947265625	-2.2508388671875	0		1.159794921875	-0.5808641967773438	0		2.751209716796875	-0.08833723449707032	0		4.30981396484375	0.2788923034667969	0		5.462529296875	-0.014964786529541016	0		-0.08537776184082031	5.9526220703125	0		
-0.004834282875061035	-6.257609724998474E-4	0		0.47626791381835937	-2.324974853515625	0		-0.9364291381835937	-0.016780961990356447	0		-0.6496665649414063	-2.26476171875	0		1.1906885986328124	-0.5715242309570312	0		2.70797119140625	-0.08435859680175781	0		4.32765380859375	0.2854859619140625	0		5.45805810546875	-0.021889162063598634	0		-0.08562126922607421	5.95267333984375	0		
-0.008247939109802246	-0.0045167779922485355	0		0.44998828125	-2.3213583984375	0		-1.0447047119140624	-0.013310660362243652	0		-0.6957612915039062	-2.252685791015625	0		1.1903568115234375	-0.571498046875	0		2.7205302734375	-0.08964087677001953	0		4.30302490234375	0.2720146179199219	0		5.44769091796875	-0.023690872192382813	0		-0.08489581298828125	5.95169287109375	0		
-0.005487236976623535	-5.537710189819336E-4	0		0.460494384765625	-2.327577880859375	0		-1.004975830078125	-0.011163593292236328	0		-0.6822102661132813	-2.256958740234375	0		1.161871826171875	-0.5778525390625	0		2.75196875	-0.10035769653320313	0		4.3027001953125	0.2719927062988281	0		5.45729248046875	-0.026950147628784178	0		-0.06897537994384766	5.95936474609375	0		
-0.0027443490028381348	0.002400151014328003	0		0.46423095703125	-2.32365234375	0		-0.9971446533203125	-0.004310521125793457	0		-0.6804947509765625	-2.25397412109375	0		1.20964111328125	-0.5739221801757812	0		2.727896728515625	-0.08883429718017578	0		4.33152978515625	0.27831005859375	0		5.45537255859375	-0.008954801559448243	0		-0.07118067932128906	5.961431640625	0		
0.01885009956359863	-0.002079060077667236	0		0.4681158752441406	-2.313737060546875	0		-0.9336505737304688	-0.013718735694885255	0		-0.694761474609375	-2.250639404296875	0		1.1924403076171874	-0.5685435180664062	0		2.70923095703125	-0.10444627380371094	0		4.32293310546875	0.2654537048339844	0		5.4467275390625	-0.02382420349121094	0		-0.08563988494873047	5.95176220703125	0		
-0.0033433210849761964	0.0024184529781341555	0		0.44862518310546873	-2.32130908203125	0		-1.0099651489257813	-0.013996709823608398	0		-0.6873031005859375	-2.26080322265625	0		1.189078369140625	-0.5714844360351562	0		2.72491455078125	-0.10583193206787109	0		4.29967578125	0.2669237060546875	0		5.4505947265625	-0.01697484588623047	0		-0.08683576965332031	5.95279052734375	0		
0.015234515190124512	-0.005008862018585205	0		0.4820380554199219	-2.33507666015625	0		-0.94235498046875	-0.020513198852539063	0		-0.6896334838867187	-2.26275244140625	0		1.1468670654296875	-0.5685580444335937	0		2.72154150390625	-0.11079689025878907	0		4.29557666015625	0.27396023559570315	0		5.4561083984375	-0.02717165946960449	0		-0.07182991790771484	5.96144970703125	0		
